<svg width="60" height="60" viewBox="0 0 60 60" fill="none" xmlns="http://www.w3.org/2000/svg">
<path d="M36.2864 22.1737L34.1241 21.8589C34.0578 21.8589 33.9915 21.8589 33.9915 21.925L33.0761 23.0995C33.0238 23.1761 33.0003 23.2686 33.0098 23.3608C33.0098 23.4269 32.9435 23.5592 32.8804 23.4931L32.1575 23.2978C32.028 23.2978 31.8955 23.2978 31.8418 23.4269L28.8934 27.2055C28.8272 27.2716 28.7609 27.2716 28.6314 27.2716L27.5171 26.7489C27.4698 26.7193 27.4151 26.7036 27.3593 26.7036C27.3034 26.7036 27.2487 26.7193 27.2015 26.7489L26.5827 27.1457C26.5357 27.176 26.4809 27.1922 26.4249 27.1922C26.3689 27.1922 26.3141 27.176 26.2671 27.1457L26.0051 27.0166C25.9624 26.9973 25.9162 26.9872 25.8694 26.9867C25.8226 26.9862 25.7762 26.9954 25.7332 27.0138C25.6901 27.0321 25.6514 27.0592 25.6194 27.0933C25.5874 27.1274 25.5629 27.1677 25.5473 27.2118L25.3485 28.1249C25.3249 28.2219 25.3312 28.3237 25.3667 28.417C25.4022 28.5103 25.4652 28.5907 25.5473 28.6476L26.0714 28.9625L27.4445 29.8127L28.1011 30.2031C28.1933 30.2571 28.3004 30.2801 28.4067 30.2688C28.513 30.2574 28.6128 30.2123 28.6914 30.1401L29.8026 29.1577C29.8983 29.1034 30.009 29.0813 30.1182 29.0947L30.4339 29.29C30.5633 29.3561 30.6959 29.3561 30.7496 29.2238L31.3367 28.7011C31.3771 28.6606 31.4285 28.6327 31.4846 28.621C31.5407 28.6092 31.5991 28.6141 31.6524 28.635L32.5047 29.0286C32.5704 29.0501 32.6404 29.0553 32.7086 29.0438C32.7768 29.0323 32.8412 29.0044 32.8961 28.9625L33.2907 28.4398L36.2391 24.6613C36.3685 24.4629 36.3022 24.2015 36.0402 24.2015L35.4215 24.063C35.2889 24.063 35.2258 23.8678 35.2889 23.7481L36.3369 22.5075C36.4821 22.3753 36.4158 22.1737 36.2864 22.1737Z" fill="white"/>
<path d="M26.4601 29.8253C26.3938 29.7592 26.3307 29.8253 26.3307 29.8914L26.6464 30.7384V30.9368L26.3843 32.0452C26.3799 32.0811 26.3835 32.1175 26.395 32.1519C26.4064 32.1862 26.4254 32.2175 26.4506 32.2436L27.2367 32.8292C27.2729 32.8609 27.3195 32.8784 27.3677 32.8784C27.4158 32.8784 27.4624 32.8609 27.4987 32.8292L28.351 32.1113C28.3765 32.0863 28.4073 32.0673 28.4412 32.0558C28.4751 32.0444 28.5112 32.0407 28.5467 32.0452L29.4653 31.9161C29.5284 31.9161 29.5284 31.85 29.4653 31.7838L26.4601 29.8253Z" fill="white"/>
<path d="M26.1979 32.6339C26.1869 32.6183 26.1722 32.6056 26.1552 32.5968C26.1381 32.588 26.1192 32.5835 26.1001 32.5835C26.0809 32.5835 26.062 32.588 26.045 32.5968C26.028 32.6056 26.0133 32.6183 26.0022 32.6339L25.3456 32.9488C25.3371 32.9488 25.3286 32.9505 25.3207 32.9539C25.3128 32.9572 25.3057 32.9621 25.2998 32.9683C25.2939 32.9745 25.2893 32.9818 25.2864 32.9898C25.2834 32.9978 25.2821 33.0064 25.2825 33.0149L23.8399 36.5415H23.9062L24.2218 36.4124V36.4754L23.1738 38.1758C23.1738 38.2419 23.1738 38.2419 23.237 38.2419L26.905 34.5169C26.9713 34.5169 26.9713 34.4507 26.9713 34.3846L27.0376 33.4054C27.0376 33.3392 27.0376 33.2763 26.9713 33.2763L26.1979 32.6339Z" fill="white"/>
<path d="M22.4982 60L21.0461 57.2889L23.5715 55.5413L24.0576 56.2183L23.259 56.7567C23.1226 56.8546 22.9802 56.944 22.8328 57.0244C22.6996 57.1 22.5602 57.1642 22.4161 57.2165L25.1309 57.8714L24.9447 58.6397L22.2236 57.9816C22.295 58.0548 22.3615 58.1326 22.4225 58.2146C22.4824 58.2934 22.5393 58.3784 22.5961 58.4697L22.7697 58.7846L23.2306 59.6284L22.4982 60Z" fill="#FFCD1E"/>
<path d="M10.6038 49.6405C11.0363 49.1462 11.7245 49.0958 12.34 49.6405L13.6027 50.7458L11.0773 53.6206L10.0735 52.7169C9.41692 52.1438 9.17701 51.5424 9.63789 51.0134C9.7372 50.8891 9.87088 50.7966 10.0224 50.7474C10.1739 50.6981 10.3365 50.6943 10.4902 50.7363C10.3769 50.5695 10.3262 50.3682 10.347 50.1678C10.3677 49.9674 10.4587 49.7807 10.6038 49.6405ZM11.5066 52.0399L10.9953 51.5959C10.6796 51.3157 10.4081 51.237 10.244 51.4259C10.0798 51.6148 10.1935 51.8636 10.5186 52.1438L11.0268 52.5878L11.5066 52.0399ZM11.0963 50.1758C10.8722 50.434 10.9921 50.7489 11.3457 51.0575L11.9265 51.5613L12.5862 50.8087L12.0054 50.3049C11.6519 49.9963 11.3236 49.9145 11.0963 50.1758Z" fill="white"/>
<path d="M4.91541 47.0145L6.65791 45.692C7.45971 45.0812 8.37831 45.0938 8.96861 45.8652C9.55891 46.6367 9.32532 47.5246 8.52352 48.1323L6.78101 49.4548L6.34224 48.8817L8.15418 47.5026C8.252 47.4432 8.33622 47.364 8.40139 47.2701C8.46657 47.1761 8.51124 47.0696 8.53251 46.9574C8.55377 46.8451 8.55117 46.7297 8.52486 46.6185C8.49854 46.5074 8.44911 46.4029 8.37977 46.312C8.31042 46.2211 8.2227 46.1458 8.1223 46.0909C8.0219 46.0359 7.91105 46.0027 7.79693 45.9932C7.68281 45.9837 7.56798 45.9983 7.45986 46.0359C7.35173 46.0735 7.25274 46.1334 7.16929 46.2116L5.35419 47.5876L4.91541 47.0145Z" fill="white"/>
<path d="M6.71173 42.5652L3.32775 44.3442L2.98999 43.7145L6.38028 41.9259L6.71173 42.5652Z" fill="white"/>
<path d="M3.87999 37.694L4.56816 37.4579L5.30682 39.5896L1.68609 40.8491L1.44934 40.1658L4.37875 39.1582L3.87999 37.694Z" fill="white"/>
<path d="M1.64522 32.2152C2.69324 32.0704 3.63709 32.6718 3.81071 33.9282L3.98433 35.1877L0.196295 35.7072L0.0258303 34.4477C-0.150945 33.1567 0.600351 32.3569 1.64522 32.2152ZM1.74307 32.93C1.58954 32.9438 1.44046 32.9887 1.30498 33.062C1.1695 33.1354 1.0505 33.2356 0.955287 33.3565C0.860079 33.4774 0.790682 33.6165 0.751356 33.7652C0.712031 33.9139 0.703611 34.069 0.726617 34.221L0.815004 34.8823L3.16359 34.5674L3.07204 33.9093C3.05335 33.7567 3.00376 33.6096 2.92628 33.4768C2.8488 33.3439 2.74505 33.2282 2.62134 33.1366C2.49763 33.045 2.35653 32.9795 2.20664 32.9439C2.05674 32.9084 1.90117 32.9037 1.74938 32.93H1.74307Z" fill="white"/>
<path d="M0.552915 22.8034L1.26948 22.9451L1.07377 23.9213L4.11367 24.5258L3.97161 25.2343L0.931713 24.6297L0.735999 25.6027L0.022583 25.461L0.552915 22.8034Z" fill="white"/>
<path d="M2.64257 17.013L6.17176 18.4897L5.89081 19.1573L4.46083 18.559L3.82949 20.0578L5.25948 20.6561L4.97852 21.3205L1.44934 19.8437L1.73028 19.1762L3.15711 19.7744L3.78845 18.2756L2.36162 17.6774L2.64257 17.013Z" fill="white"/>
<path d="M5.25007 13.9869L5.92875 14.4466L6.68952 13.3257L7.29245 13.7319L6.53168 14.8528L7.21037 15.3125L8.12581 13.968L8.72874 14.3742L7.40609 16.317L4.24939 14.1758L5.56889 12.233L6.17182 12.6424L5.25007 13.9869Z" fill="white"/>
<path d="M12.88 9.97847L10.5377 6.95879L12.4002 5.52295L12.8453 6.09603L11.5573 7.09104L12.0624 7.73969L13.1357 6.90841L13.5839 7.48464L12.5043 8.31906L13.4513 9.54079L12.88 9.97847Z" fill="white"/>
<path d="M17.6782 2.52527L18.6599 4.47436C19.1113 5.37176 18.9314 6.26916 18.0633 6.70684C17.1952 7.14452 16.3619 6.75093 15.9104 5.85038L14.9287 3.91073L15.5758 3.59585L16.5986 5.62367C16.6475 5.71939 16.7149 5.80457 16.7968 5.87434C16.8787 5.9441 16.9736 5.99709 17.076 6.03028C17.1785 6.06347 17.2865 6.0762 17.3939 6.06775C17.5012 6.05931 17.6059 6.02984 17.7019 5.98105C17.7978 5.93226 17.8832 5.86509 17.9532 5.78338C18.0231 5.70166 18.0762 5.60701 18.1095 5.50482C18.1428 5.40263 18.1555 5.2949 18.1471 5.18779C18.1386 5.08068 18.1091 4.97628 18.0602 4.88056L17.0374 2.84959L17.6782 2.52527Z" fill="white"/>
<path d="M23.1108 0.743164L23.3034 1.44219L22.3563 1.70669L23.1802 4.68858L22.4795 4.87751L21.6587 1.89877L20.7117 2.16326L20.516 1.46109L23.1108 0.743164Z" fill="white"/>
<path d="M29.1464 0L29.3043 2.1758C29.3769 3.17712 28.8623 3.93597 27.8932 4.00525C26.9241 4.07452 26.3149 3.39753 26.236 2.39307L26.0781 0.220413L26.801 0.166885L26.962 2.434C26.9565 2.54958 26.9757 2.66501 27.0182 2.77267C27.0607 2.88033 27.1256 2.97777 27.2086 3.05858C27.2917 3.13939 27.3909 3.20173 27.4999 3.24148C27.6088 3.28123 27.7249 3.2975 27.8406 3.28921C27.9563 3.28092 28.069 3.24826 28.1711 3.19338C28.2732 3.1385 28.3625 3.06265 28.4331 2.97083C28.5037 2.87901 28.554 2.77331 28.5806 2.6607C28.6073 2.54808 28.6097 2.43111 28.5877 2.3175L28.4235 0.0503804L29.1464 0Z" fill="white"/>
<path d="M33.8436 4.14724L33.1586 2.77438L32.7262 2.72085L32.5652 3.98036L31.8455 3.88589L32.3347 0.107361L33.6826 0.280545C34.6644 0.406496 35.0495 0.995317 34.9453 1.72898C34.915 1.9963 34.7996 2.24691 34.6161 2.44409C34.4327 2.64128 34.1907 2.77468 33.9257 2.82476L34.7086 4.26375L33.8436 4.14724ZM32.8209 1.99978L33.5406 2.09109C33.6167 2.1076 33.6954 2.10875 33.772 2.09446C33.8486 2.08017 33.9215 2.05074 33.9866 2.0079C34.0516 1.96506 34.1073 1.90967 34.1505 1.84501C34.1938 1.78034 34.2236 1.7077 34.2382 1.63137C34.2481 1.55243 34.241 1.4723 34.2174 1.39631C34.1938 1.32032 34.1543 1.25021 34.1014 1.19064C34.0486 1.13107 33.9836 1.08341 33.9109 1.05082C33.8381 1.01822 33.7592 1.00145 33.6795 1.00161L32.9598 0.9103L32.8209 1.99978Z" fill="white"/>
<path d="M38.6195 2.09708L38.3638 2.87483L39.6517 3.29991L39.4245 3.9895L38.1365 3.56441L37.8808 4.34216L39.4276 4.85226L39.2098 5.54184L36.978 4.80503L38.1744 1.18079L40.4094 1.91445L40.1821 2.60718L38.6195 2.09708Z" fill="white"/>
<path d="M48.7746 5.73094L48.9829 8.79785L45.9494 9.35204L45.7852 8.5302L46.7322 8.36647C46.9058 8.33498 47.0731 8.30979 47.231 8.2972C47.3833 8.28459 47.5364 8.28459 47.6887 8.2972L45.479 6.58426L45.9651 5.9545L48.1748 7.66744C48.1392 7.57207 48.1107 7.47419 48.0896 7.3746C48.0654 7.27094 48.0486 7.16573 48.0391 7.05973C48.0391 6.95582 48.0138 6.83616 48.0044 6.71021L47.9318 5.76558L48.7746 5.73094Z" fill="#FFCD1E"/>
<path d="M53.9201 19.6169L54.7156 18.307L54.5325 17.9134L53.3772 18.4487L53.0615 17.7937L56.5339 16.1878L57.1084 17.4159C57.5251 18.3101 57.2315 18.9493 56.5623 19.261C56.3192 19.3781 56.0448 19.4144 55.7795 19.3645C55.5142 19.3147 55.2719 19.1813 55.0881 18.984L54.2863 20.4135L53.9201 19.6169ZM55.1828 17.6079L55.4985 18.2629C55.5251 18.3361 55.5662 18.4033 55.6193 18.4605C55.6724 18.5176 55.7365 18.5636 55.8077 18.5956C55.8789 18.6276 55.9559 18.645 56.034 18.6468C56.1121 18.6486 56.1898 18.6348 56.2624 18.6061C56.3336 18.5718 56.3967 18.5228 56.4475 18.4624C56.4983 18.402 56.5357 18.3315 56.5572 18.2556C56.5787 18.1798 56.5838 18.1002 56.5721 18.0222C56.5605 17.9442 56.5324 17.8695 56.4897 17.8032L56.174 17.1482L55.1828 17.6079Z" fill="white"/>
<path d="M57.724 25.7068C57.3399 25.7908 56.9395 25.7595 56.5732 25.6169C56.2069 25.4743 55.8911 25.2268 55.6656 24.9055C55.4402 24.5842 55.315 24.2035 55.3061 23.8114C55.2971 23.4193 55.4047 23.0333 55.6152 22.702C55.8258 22.3708 56.1299 22.1091 56.4893 21.95C56.8487 21.7909 57.2472 21.7414 57.6347 21.8078C58.0223 21.8742 58.3814 22.0536 58.6669 22.3232C58.9524 22.5929 59.1516 22.9408 59.2392 23.3232C59.355 23.8397 59.2604 24.3809 58.9763 24.8279C58.6922 25.2749 58.2417 25.591 57.724 25.7068V25.7068ZM57.563 25.0015C57.8053 24.9437 58.0251 24.8156 58.1947 24.6335C58.3642 24.4513 58.4759 24.2232 58.5158 23.9778C58.5556 23.7325 58.5217 23.4808 58.4185 23.2546C58.3152 23.0284 58.1472 22.8377 57.9355 22.7066C57.7239 22.5754 57.478 22.5097 57.229 22.5176C56.9799 22.5256 56.7388 22.6068 56.5359 22.7512C56.3331 22.8956 56.1776 23.0966 56.0891 23.3289C56.0005 23.5612 55.9828 23.8145 56.0383 24.0568C56.0747 24.2197 56.1433 24.3738 56.2399 24.51C56.3366 24.6462 56.4594 24.7619 56.6012 24.8504C56.7431 24.9389 56.9012 24.9984 57.0663 25.0254C57.2314 25.0524 57.4002 25.0464 57.563 25.0078V25.0015Z" fill="white"/>
<path d="M57.1273 31.2139L56.4707 31.5004C56.1707 31.1627 56.0007 30.7298 55.9908 30.2787C55.9867 30.0161 56.0344 29.7553 56.1314 29.5111C56.2283 29.267 56.3724 29.0442 56.5556 28.8556C56.7388 28.667 56.9575 28.5163 57.1991 28.412C57.4407 28.3077 57.7005 28.2519 57.9638 28.2477C58.227 28.2436 58.4885 28.2912 58.7333 28.3879C58.9781 28.4845 59.2014 28.6284 59.3904 28.8111C59.5795 28.9938 59.7306 29.2119 59.8352 29.4529C59.9398 29.694 59.9957 29.9531 59.9998 30.2157C60.0067 30.6658 59.8522 31.1035 59.5642 31.45L58.8982 31.1855C59.1425 30.9321 59.2764 30.5925 59.2707 30.2409C59.2583 30.0368 59.1963 29.8387 59.0901 29.6638C58.9838 29.4889 58.8364 29.3425 58.6607 29.2372C58.485 29.1318 58.2862 29.0707 58.0815 29.0592C57.8768 29.0477 57.6724 29.086 57.4859 29.171C57.2994 29.2559 57.1364 29.3849 57.0111 29.5467C56.8857 29.7085 56.8018 29.8984 56.7664 30.0998C56.7311 30.3013 56.7455 30.5083 56.8084 30.7029C56.8713 30.8976 56.9807 31.074 57.1273 31.217V31.2139Z" fill="white"/>
<path d="M55.2491 36.8124L55.4291 35.915L57.3483 34.835L55.7069 34.5201L55.8489 33.8116L59.6022 34.5516L59.4602 35.2601L57.9071 34.9452L59.2013 36.57L59.0214 37.4642L57.5441 35.5183L55.2491 36.8124Z" fill="white"/>
<path d="M57.1587 40.7515L56.398 40.4367L55.8834 41.6962L55.2111 41.4222L55.7224 40.1627L54.9648 39.8478L54.3335 41.3498L53.658 41.0759L54.545 38.9032L58.09 40.3454L57.1998 42.518L56.5274 42.2441L57.1587 40.7515Z" fill="white"/>
<path d="M54.3618 47.4521L53.762 47.0491L54.3018 46.2147L51.6975 44.5395L52.0889 43.935L54.6932 45.6101L55.2362 44.7757L55.8486 45.1693L54.3618 47.4521Z" fill="white"/>
<path d="M48.5094 50.0971C48.0138 49.6248 47.9822 48.8723 48.6798 48.1481C48.875 47.936 49.112 47.7667 49.3761 47.6507C49.6402 47.5347 49.9255 47.4746 50.214 47.4742L50.4223 48.1764C50.1959 48.1699 49.9705 48.2096 49.7599 48.293C49.5493 48.3764 49.3579 48.5017 49.1975 48.6613C48.8503 49.0234 48.784 49.3603 48.9766 49.5461C49.1691 49.7319 49.4564 49.628 49.8541 49.3225C50.7222 48.6582 51.2715 48.6739 51.6882 49.0738C52.1049 49.4737 52.1964 50.2703 51.5398 50.9631C51.2148 51.3121 50.7764 51.5351 50.3024 51.5928L50.0625 50.941C50.4229 50.8958 50.757 50.7292 51.0095 50.4687C51.2778 50.1916 51.4325 49.8736 51.2115 49.6595C50.9905 49.4453 50.8011 49.5713 50.3529 49.9019C49.6931 50.3774 49.0997 50.6639 48.5094 50.0971Z" fill="white"/>
<path d="M47.1016 53.7433L46.6281 53.0758L45.5201 53.8567L45.1003 53.2647L46.2083 52.4838L45.7348 51.8163L44.4026 52.7609L43.9828 52.1658L45.9052 50.8118L48.1149 53.926L46.1925 55.2831L45.7726 54.688L47.1016 53.7433Z" fill="white"/>
<path d="M40.0148 55.006L41.4827 54.3542L41.4448 53.5764L42.1898 53.2616L42.3066 57.3896L41.7068 57.6541L38.7174 54.7982L39.4592 54.4833L40.0148 55.006ZM40.5641 55.557L41.5995 56.5898L41.5237 55.1319L40.5641 55.557Z" fill="white"/>
<path d="M35.4721 59.575L35.3016 58.8665L36.2707 58.6367L35.5542 55.6296L36.2581 55.4627L36.9747 58.4698L37.9438 58.2399L38.1143 58.9452L35.4721 59.575Z" fill="white"/>
</svg>
